<svg width="62" height="62" viewBox="0 0 62 62" fill="none" xmlns="http://www.w3.org/2000/svg">
<path d="M62 0H0V62H62V0Z" fill="#B92770"/>
<path d="M17.4192 44.581C15.6773 42.8685 14.2917 40.828 13.3425 38.5773C12.3933 36.3265 11.8993 33.9101 11.8888 31.4674C11.8784 29.0246 12.3519 26.6041 13.2818 24.3453C14.2118 22.0865 15.5799 20.0343 17.3072 18.307C19.0345 16.5797 21.0867 15.2116 23.3455 14.2817C25.6042 13.3517 28.0248 12.8782 30.4675 12.8887C32.9102 12.8991 35.3267 13.3931 37.5775 14.3423C39.8282 15.2915 41.8687 16.6771 43.5812 18.419C45.3231 20.1315 46.7087 22.172 47.6579 24.4228C48.6071 26.6735 49.1012 29.09 49.1116 31.5327C49.122 33.9754 48.6485 36.396 47.7186 38.6547C46.7886 40.9135 45.4205 42.9658 43.6932 44.693C41.9659 46.4203 39.9137 47.7884 37.6549 48.7184C35.3962 49.6483 32.9756 50.1218 30.5329 50.1114C28.0902 50.101 25.6737 49.6069 23.4229 48.6577C21.1722 47.7085 19.1317 46.323 17.4192 44.581ZM15.3642 31.5C15.3642 34.4936 16.2519 37.42 17.9151 39.9091C19.5782 42.3982 21.9422 44.3383 24.7079 45.4839C27.4736 46.6295 30.517 46.9292 33.4531 46.3452C36.3892 45.7612 39.0862 44.3196 41.203 42.2028C43.3198 40.086 44.7613 37.389 45.3454 34.4529C45.9294 31.5168 45.6297 28.4735 44.484 25.7077C43.3384 22.942 41.3984 20.5781 38.9093 18.9149C36.4202 17.2517 33.4938 16.364 30.5002 16.364C26.4873 16.3688 22.6402 17.965 19.8027 20.8025C16.9652 23.64 15.369 27.4872 15.3642 31.5ZM36.4742 36.366L29.7492 33C29.4699 32.8613 29.2348 32.6474 29.0703 32.3824C28.9059 32.1175 28.8186 31.8119 28.8182 31.5V21.407C28.8182 20.9609 28.9954 20.5331 29.3108 20.2177C29.6263 19.9022 30.0541 19.725 30.5002 19.725C30.9463 19.725 31.3741 19.9022 31.6896 20.2177C32.005 20.5331 32.1822 20.9609 32.1822 21.407V30.459L37.9822 33.359C38.3213 33.5283 38.5933 33.8073 38.7539 34.1506C38.9146 34.4939 38.9545 34.8814 38.8672 35.2503C38.7798 35.6191 38.5704 35.9476 38.2729 36.1825C37.9754 36.4173 37.6072 36.5447 37.2282 36.544C36.9663 36.5451 36.708 36.4841 36.4742 36.366Z" fill="white"/>
</svg>
