<svg width="62" height="62" viewBox="0 0 62 62" fill="none" xmlns="http://www.w3.org/2000/svg">
<path d="M62 0H0V62H62V0Z" fill="#B92770"/>
<path d="M27.1075 55.3739C23.6996 53.8757 20.4521 52.0369 17.4145 49.8851L16.6045 49.3539C16.2446 49.0596 15.8134 48.8657 15.3545 48.7918C15.0264 48.8225 14.7172 48.9592 14.4735 49.181C13.3465 49.997 12.1825 50.7 10.8365 51.513C10.2245 51.882 9.59144 52.2639 8.91244 52.6859C8.74541 52.7896 8.55155 52.8421 8.35501 52.8363C8.15847 52.8304 7.968 52.7667 7.80746 52.6532C7.64642 52.5396 7.52255 52.3809 7.45138 52.1971C7.38022 52.0133 7.36496 51.8124 7.4075 51.62C9.0375 44.268 10.5495 37.4512 12.1175 30.3802C12.1469 30.2471 12.2032 30.1212 12.283 30.0106C12.3628 29.9 12.4644 29.807 12.5815 29.7372C12.6989 29.6677 12.8293 29.623 12.9646 29.6058C13.1 29.5886 13.2374 29.5992 13.3685 29.6371L34.1624 35.577C34.3403 35.6276 34.5007 35.7268 34.6256 35.8631C34.7506 35.9994 34.8354 36.1674 34.8705 36.349C34.9053 36.5303 34.8893 36.7177 34.8242 36.8905C34.7591 37.0633 34.6474 37.2148 34.5015 37.328L28.4464 42.0282C30.3539 42.5472 32.3207 42.8159 34.2975 42.828C38.0118 42.8062 41.65 41.7724 44.8205 39.8373C48.1976 37.7534 51.2661 35.2062 53.9365 32.2708C54.0921 32.1084 54.298 32.0035 54.5208 31.9725C54.7436 31.9415 54.9704 31.9862 55.1645 32.1C55.3587 32.2142 55.5086 32.3907 55.5899 32.6009C55.6713 32.8111 55.6792 33.0429 55.6125 33.2582C54.5509 36.9243 53.1589 40.4867 51.4535 43.9012C49.6904 47.3831 47.2225 50.4599 44.2065 52.9369C41.311 55.3737 37.6529 56.7186 33.8685 56.7372C31.5488 56.716 29.2542 56.2531 27.1075 55.3739ZM17.7014 47.681L18.5145 48.2162C21.4405 50.2905 24.567 52.0658 27.8474 53.516C29.76 54.3022 31.8047 54.7177 33.8725 54.7401C37.2001 54.7162 40.4142 53.5267 42.9555 51.3783C45.7586 49.0723 48.0512 46.2081 49.6875 42.9681C50.7485 40.9042 51.6615 38.7674 52.4195 36.5741C50.4113 38.4715 48.2027 40.1444 45.8325 41.5638C42.3565 43.6793 38.3696 44.8076 34.3004 44.827C31.4683 44.7967 28.6602 44.3033 25.9875 43.3661C25.8162 43.3082 25.6639 43.2052 25.5466 43.0677C25.4293 42.9302 25.3515 42.763 25.3214 42.5848C25.2916 42.4065 25.3106 42.2239 25.3764 42.0555C25.4423 41.8872 25.5525 41.7399 25.6955 41.6292L31.7185 36.954L13.8405 31.847C12.5185 37.813 11.2295 43.6232 9.8685 49.7582C11.1495 48.9862 12.2595 48.315 13.2995 47.558C13.8825 47.0847 14.604 46.8146 15.3545 46.7889C16.2069 46.85 17.0237 47.1603 17.7014 47.681ZM47.4735 31.4022L45.2675 30.7669L26.7185 25.4261C26.5412 25.375 26.3815 25.2758 26.257 25.1395C26.1326 25.0033 26.0483 24.8353 26.0135 24.6542C25.9786 24.4728 25.9946 24.2854 26.0597 24.1126C26.1249 23.9398 26.2366 23.7883 26.3825 23.6751L32.3105 19.075C30.5418 18.3973 28.6615 18.0581 26.7675 18.075C23.2766 18.1448 19.8543 19.0569 16.7915 20.7333C12.9539 22.8219 9.56702 25.6482 6.82547 29.0501C6.6787 29.227 6.47551 29.3478 6.25003 29.3924C6.02455 29.4371 5.79057 29.4029 5.58749 29.2953C5.38424 29.1876 5.22429 29.013 5.13467 28.8011C5.04505 28.5893 5.03123 28.353 5.09549 28.1322C5.96018 25.0294 7.0717 22.0006 8.41946 19.075C9.78919 16.105 11.5678 13.3413 13.7035 10.8641C15.4168 8.84932 17.5147 7.19661 19.8745 6.00229C22.1136 4.89791 24.5778 4.32564 27.0745 4.33091C29.9625 4.37425 32.8089 5.02552 35.4285 6.24204C38.1466 7.55749 40.7352 9.12515 43.1605 10.9242C43.6005 11.2242 44.0525 11.543 44.4965 11.847C44.7745 12.0789 45.104 12.241 45.4575 12.3192C45.6783 12.2913 45.8865 12.2005 46.0575 12.058C47.3155 11.186 48.6304 10.374 50.0244 9.51499C50.6494 9.13199 51.2935 8.73296 51.9695 8.30796C52.1366 8.20257 52.3313 8.14899 52.5288 8.15415C52.7264 8.15931 52.918 8.22328 53.0795 8.33726C53.2409 8.451 53.365 8.60961 53.4362 8.7938C53.5074 8.97799 53.5224 9.17919 53.4795 9.37192L48.7265 30.6581C48.6968 30.7914 48.6402 30.9171 48.56 31.0277C48.4799 31.1383 48.3779 31.2314 48.2605 31.3011C48.1059 31.392 47.9298 31.4402 47.7505 31.4403C47.6568 31.4407 47.5636 31.4278 47.4735 31.4022ZM34.6955 17.973C34.8429 18.0518 34.9681 18.1663 35.0598 18.306C35.1516 18.4458 35.2068 18.6067 35.2205 18.7733C35.235 18.9396 35.2076 19.1066 35.1409 19.2596C35.0742 19.4126 34.9702 19.5467 34.8385 19.6493L29.1645 24.0492L45.8205 28.849L47.0065 29.1903L51.0065 11.2591C49.6615 12.0891 48.3894 12.875 47.1964 13.703C46.6958 14.0846 46.0886 14.3008 45.4594 14.3211C44.6947 14.267 43.965 13.9795 43.3685 13.4979C42.9195 13.1889 42.4635 12.8732 42.0225 12.5682C39.6977 10.8432 37.2185 9.33682 34.6165 8.06821C32.2528 6.96704 29.6837 6.37524 27.0764 6.33188C24.8852 6.32712 22.7225 6.82848 20.7565 7.79624C18.6352 8.87417 16.7501 10.364 15.2115 12.1791C13.197 14.5167 11.5201 17.1251 10.2295 19.9281C9.57346 21.3171 8.96645 22.7951 8.38345 24.4281C10.6068 22.2633 13.1243 20.4231 15.8615 18.9613C19.2112 17.1336 22.9532 16.1426 26.7685 16.0731C29.5273 16.0401 32.2511 16.6935 34.6955 17.973Z" fill="white"/>
</svg>
