<svg width="62" height="62" viewBox="0 0 62 62" fill="none" xmlns="http://www.w3.org/2000/svg">
<path d="M62 0H0V62H62V0Z" fill="#B92770"/>
<path d="M27.0117 56.5657C26.8049 56.4559 26.6362 56.286 26.5278 56.0784C26.4195 55.8708 26.3766 55.6351 26.4048 55.4027C26.4128 53.8027 26.4048 52.203 26.4048 50.597V49.9969C23.5169 49.4745 20.7443 48.4446 18.2157 46.9549C15.6563 45.4909 13.4641 43.4629 11.8054 41.0252C10.1467 38.5875 9.0651 35.8037 8.64271 32.8856C8.39171 31.3976 8.3538 29.8726 8.2428 28.3636C8.21365 28.1199 8.2706 27.8738 8.40394 27.6678C8.53727 27.4618 8.73855 27.3089 8.97278 27.2357C9.19268 27.1522 9.43426 27.1455 9.65845 27.2166C9.88264 27.2878 10.0763 27.4327 10.2078 27.6278C10.329 27.8544 10.4163 28.0979 10.4668 28.3499C11.2722 32.0089 13.4621 35.2141 16.5778 37.2948C19.044 38.8156 21.9211 39.5344 24.8127 39.3519C25.3247 39.3369 25.8357 39.3056 26.4017 39.2806V38.661C26.4017 37.026 26.4017 35.3888 26.4017 33.7528C26.3722 33.5208 26.4137 33.2853 26.5209 33.0775C26.628 32.8696 26.7956 32.6992 27.0017 32.5887C27.2121 32.4864 27.4483 32.4495 27.6799 32.4822C27.9116 32.515 28.1281 32.6161 28.3018 32.7728C33.3018 36.3448 38.3048 39.9132 43.3108 43.4779C43.5003 43.5693 43.6603 43.7119 43.7725 43.89C43.8846 44.068 43.9443 44.2743 43.9448 44.4847C43.9454 44.6951 43.8866 44.9013 43.7754 45.0799C43.6642 45.2585 43.5049 45.4026 43.3158 45.4949C38.3158 49.1249 33.3117 52.7518 28.3037 56.3758C28.073 56.5652 27.7878 56.6759 27.4898 56.6917C27.3227 56.6884 27.1587 56.6453 27.0117 56.5657ZM11.8838 36.4808C13.1623 39.7447 15.4239 42.5305 18.3557 44.452C21.0533 46.2582 24.1191 47.4414 27.3307 47.9158C28.3307 48.0678 28.5858 48.3667 28.5888 49.3807C28.5888 50.1557 28.5888 50.9309 28.5888 51.7069V53.4676L40.9768 44.493L28.5907 35.661C28.5907 37.168 28.5907 38.5276 28.5907 39.8856C28.5907 40.9306 28.2907 41.3018 27.2357 41.3538C25.6935 41.4803 24.145 41.5138 22.5988 41.4539C18.7692 41.2583 15.167 39.5768 12.5577 36.7669C12.2937 36.4879 12.0397 36.1989 11.7817 35.9149C11.767 36.1081 11.8017 36.3018 11.8827 36.4779L11.8838 36.4808ZM44.9227 43.7308C44.8125 43.6164 44.7272 43.4804 44.6721 43.3314C44.6171 43.1823 44.5935 43.0237 44.6029 42.8651C44.6123 42.7065 44.6544 42.5515 44.7267 42.41C44.7989 42.2685 44.8997 42.1434 45.0227 42.0428C45.7987 41.1788 46.5548 40.2976 47.3228 39.4256L47.2228 39.2596H44.8378C43.6618 39.2596 42.4878 39.2499 41.3118 39.2679C41.0993 39.2735 40.893 39.3404 40.7178 39.4608C40.5417 39.6126 40.3212 39.7033 40.0892 39.7196C39.8573 39.7358 39.6263 39.6764 39.4308 39.5506C39.2285 39.4308 39.0727 39.2459 38.989 39.0262C38.9053 38.8064 38.8985 38.5647 38.9697 38.3406C39.2617 37.0686 39.6177 35.8068 39.8337 34.5208C40.1107 32.8628 40.2777 31.1868 40.5007 29.4608H31.8118C31.8118 30.2068 31.8118 30.9608 31.8118 31.7098C31.8118 31.9348 31.8227 32.1587 31.8047 32.3817C31.7943 32.6677 31.6713 32.9379 31.4624 33.1336C31.2536 33.3293 30.9758 33.4347 30.6897 33.4266C30.4121 33.419 30.1487 33.3023 29.9564 33.1019C29.7642 32.9014 29.6587 32.6335 29.6627 32.3558C29.6427 31.5808 29.6558 30.8046 29.6558 30.0296V29.4476H21.0928C21.1308 30.0596 21.1237 30.6767 21.2157 31.2767C21.5057 33.1447 21.8208 35.0099 22.1488 36.8719C22.2818 37.6239 22.0207 38.1966 21.4087 38.3426C20.7417 38.5016 20.2397 38.1428 20.0487 37.3748C19.4458 34.8988 19.0759 32.3719 18.9437 29.827C18.9377 29.71 18.9228 29.5937 18.9058 29.4197H18.3337C16.3577 29.4197 14.3827 29.4197 12.4067 29.4197C12.1484 29.4491 11.8879 29.3881 11.6692 29.2474C11.4505 29.1067 11.2872 28.895 11.2068 28.6478C11.1554 28.4876 11.1421 28.3174 11.168 28.1512C11.1938 27.9849 11.258 27.8273 11.3556 27.6903C11.4532 27.5532 11.5814 27.4405 11.73 27.3616C11.8786 27.2828 12.0436 27.2396 12.2118 27.2357C12.7368 27.1977 13.2668 27.223 13.7948 27.223H18.7648C19.0128 24.6 19.2547 22.023 19.5007 19.411H18.9008C16.7718 19.411 14.6427 19.4218 12.5127 19.3988C12.3569 19.3774 12.1988 19.4158 12.0701 19.5062C11.9414 19.5965 11.8516 19.7318 11.8187 19.8856C11.1852 21.5412 10.7577 23.2686 10.5458 25.0286C10.5426 25.2974 10.4432 25.5563 10.2656 25.7581C10.088 25.9599 9.844 26.0914 9.57776 26.1287C9.34658 26.1622 9.11092 26.115 8.91053 25.9949C8.71014 25.8749 8.5573 25.6892 8.47779 25.4696C8.39912 25.1543 8.38409 24.8267 8.43372 24.5057C8.67385 22.4698 9.20879 20.4799 10.0217 18.598C13.2787 11.237 18.8217 6.67778 26.6327 5.10578C31.415 4.19769 36.3633 4.8839 40.7179 7.0594C45.0725 9.2349 48.5929 12.7794 50.7388 17.1488C52.4165 20.4089 53.2737 24.0293 53.2361 27.6956C53.1984 31.362 52.267 34.9637 50.5227 38.1888C49.4891 40.1877 48.1455 42.0102 46.5418 43.5887C46.4247 43.7195 46.2828 43.8257 46.1244 43.9012C45.966 43.9767 45.7941 44.02 45.6188 44.0286C45.3563 44.0246 45.107 43.9177 44.9227 43.7308ZM48.3228 37.0848C48.6458 37.0848 48.7638 36.9177 48.8838 36.6717C49.7504 34.9138 50.3669 33.0432 50.7157 31.1146C50.8157 30.5696 50.8717 30.0147 50.9537 29.4217C48.2067 29.4217 45.5537 29.4218 42.9027 29.4158C42.5777 29.4158 42.5648 29.5956 42.5498 29.8416C42.5058 30.5616 42.4807 31.2868 42.3827 31.9998C42.1517 33.6648 41.8828 35.3248 41.6147 37.0448C41.6893 37.0597 41.7648 37.0692 41.8407 37.0736H44.9237C46.057 37.0762 47.1894 37.0801 48.3228 37.0848ZM42.2837 19.411C42.1893 19.4139 42.0951 19.4225 42.0017 19.4368C42.2457 22.0368 42.4907 24.6107 42.7347 27.1947H50.9998C51.0158 27.1232 51.0267 27.0509 51.0327 26.9779C50.9892 24.479 50.4766 22.0106 49.5217 19.701C49.466 19.6185 49.3917 19.5501 49.3049 19.5013C49.2181 19.4525 49.1212 19.4245 49.0217 19.4197C47.7977 19.4097 46.5737 19.4055 45.3497 19.4075L42.2837 19.411ZM21.0687 27.1878H29.6167V19.4417H21.8247C21.3057 21.991 21.0527 24.5873 21.0697 27.1888L21.0687 27.1878ZM31.8547 27.182H40.4387C40.4507 24.5779 40.1923 21.9792 39.6677 19.4285H31.8547V27.182ZM37.8068 9.02082C39.3874 11.3386 40.5422 13.9197 41.2168 16.6429C41.2254 16.7367 41.2535 16.8277 41.2994 16.91C41.3454 16.9923 41.4081 17.0639 41.4835 17.1204C41.5589 17.177 41.6453 17.217 41.7372 17.2381C41.829 17.2592 41.9242 17.261 42.0167 17.243C43.9057 17.213 45.7978 17.2308 47.6868 17.2308H48.3607C45.8396 12.8145 41.7764 9.48472 36.9508 7.88069C37.2988 8.33969 37.5628 8.67782 37.8068 9.02082ZM19.5158 17.2396C19.6044 17.2558 19.6954 17.2536 19.7831 17.2327C19.8707 17.2118 19.953 17.1729 20.0248 17.1185C20.0966 17.064 20.1562 16.9951 20.2 16.9163C20.2437 16.8376 20.2704 16.7507 20.2787 16.661C21.0353 13.5464 22.4399 10.626 24.4008 8.09065C24.4238 8.06165 24.4187 8.01079 24.4287 7.95979C20.6347 8.72279 14.3777 13.8599 13.1837 17.2279C14.3427 17.2279 15.4838 17.2279 16.6248 17.2279C17.5898 17.2229 18.5538 17.2266 19.5158 17.2396ZM29.1038 17.2396C29.5678 17.2466 29.6668 17.0956 29.6648 16.6546C29.6468 13.6236 29.6547 10.5947 29.6537 7.56575C29.6537 7.41274 29.6407 7.26559 29.6307 7.03059C29.3367 7.13059 29.0778 7.19751 28.8368 7.30451C27.6698 7.85017 26.6577 8.6791 25.8927 9.71565C24.4623 11.6094 23.386 13.7462 22.7157 16.0228C22.5947 16.3938 22.4907 16.7676 22.3617 17.1986C22.5997 17.2136 22.7618 17.2298 22.9258 17.2298H24.7428H26.2598C27.2088 17.2238 28.1557 17.2256 29.1047 17.2376L29.1038 17.2396ZM31.8457 17.1956H39.1078C39.0806 17.0337 39.0428 16.8737 38.9948 16.7166C38.4778 15.3536 38.0237 13.96 37.4187 12.639C36.6514 10.8489 35.4564 9.27407 33.9387 8.05354C33.3326 7.55333 32.6145 7.20736 31.8457 7.04475V17.1956Z" fill="white"/>
</svg>
